<svg width="27" height="31" viewBox="0 0 27 31" fill="none" xmlns="http://www.w3.org/2000/svg">
<path d="M7.71429 7.75C7.71429 4.54102 10.3058 1.9375 13.5 1.9375C16.6942 1.9375 19.2857 4.54102 19.2857 7.75C19.2857 10.959 16.6942 13.5625 13.5 13.5625C10.3058 13.5625 7.71429 10.959 7.71429 7.75ZM21.2143 7.75C21.2143 3.46934 17.7609 0 13.5 0C9.23906 0 5.78571 3.46934 5.78571 7.75C5.78571 12.0307 9.23906 15.5 13.5 15.5C17.7609 15.5 21.2143 12.0307 21.2143 7.75ZM1.92857 29.0625C1.92857 24.249 5.81585 20.3438 10.6071 20.3438H16.3929C21.1842 20.3438 25.0714 24.249 25.0714 29.0625V30.0312C25.0714 30.5641 25.5054 31 26.0357 31C26.5661 31 27 30.5641 27 30.0312V29.0625C27 23.1773 22.2509 18.4062 16.3929 18.4062H10.6071C4.74911 18.4062 0 23.1773 0 29.0625V30.0312C0 30.5641 0.433929 31 0.964286 31C1.49464 31 1.92857 30.5641 1.92857 30.0312V29.0625Z" fill="black" fill-opacity="0.54"/>
</svg>
